<svg xmlns="http://www.w3.org/2000/svg" viewBox="0 0 900 340" font-family="-apple-system, BlinkMacSystemFont, 'Segoe UI', Roboto, sans-serif">
  <rect width="900" height="340" rx="12" fill="#0d1117"/>

  <!-- Title -->
  <text x="450" y="30" text-anchor="middle" fill="#58a6ff" font-size="16" font-weight="700">n8n Workflow Overview</text>
  <text x="450" y="50" text-anchor="middle" fill="#8b949e" font-size="11">40 nodes • 8 stages • 6 API integrations</text>

  <!-- Connection line -->
  <line x1="60" y1="170" x2="840" y2="170" stroke="#30363d" stroke-width="2" stroke-dasharray="6,4"/>

  <!-- Nodes - Row 1 (top) -->
  <rect x="30" y="70" width="90" height="42" rx="6" fill="#161b22" stroke="#238636" stroke-width="1.5"/>
  <text x="75" y="88" text-anchor="middle" fill="#3fb950" font-size="9" font-weight="600">Telegram</text>
  <text x="75" y="102" text-anchor="middle" fill="#8b949e" font-size="8">Trigger</text>
  <line x1="120" y1="91" x2="140" y2="91" stroke="#30363d" stroke-width="1.5"/>

  <rect x="140" y="70" width="90" height="42" rx="6" fill="#161b22" stroke="#238636" stroke-width="1.5"/>
  <text x="185" y="88" text-anchor="middle" fill="#3fb950" font-size="9" font-weight="600">Input</text>
  <text x="185" y="102" text-anchor="middle" fill="#8b949e" font-size="8">Validation</text>
  <line x1="230" y1="91" x2="250" y2="91" stroke="#30363d" stroke-width="1.5"/>

  <rect x="250" y="70" width="90" height="42" rx="6" fill="#161b22" stroke="#8957e5" stroke-width="1.5"/>
  <text x="295" y="88" text-anchor="middle" fill="#bc8cff" font-size="9" font-weight="600">CISA KEV</text>
  <text x="295" y="102" text-anchor="middle" fill="#8b949e" font-size="8">+ OTX Search</text>
  <line x1="340" y1="91" x2="360" y2="91" stroke="#30363d" stroke-width="1.5"/>

  <rect x="360" y="70" width="90" height="42" rx="6" fill="#161b22" stroke="#39c5cf" stroke-width="1.5"/>
  <text x="405" y="88" text-anchor="middle" fill="#39c5cf" font-size="9" font-weight="600">Perplexity</text>
  <text x="405" y="102" text-anchor="middle" fill="#8b949e" font-size="8">Threat Context</text>
  <line x1="450" y1="91" x2="470" y2="91" stroke="#30363d" stroke-width="1.5"/>

  <rect x="470" y="70" width="90" height="42" rx="6" fill="#161b22" stroke="#d29922" stroke-width="1.5"/>
  <text x="515" y="88" text-anchor="middle" fill="#d29922" font-size="9" font-weight="600">IOC</text>
  <text x="515" y="102" text-anchor="middle" fill="#8b949e" font-size="8">Extraction</text>
  <line x1="560" y1="91" x2="580" y2="91" stroke="#30363d" stroke-width="1.5"/>

  <rect x="580" y="70" width="90" height="42" rx="6" fill="#161b22" stroke="#da3633" stroke-width="1.5"/>
  <text x="625" y="88" text-anchor="middle" fill="#f85149" font-size="9" font-weight="600">Enrichment</text>
  <text x="625" y="102" text-anchor="middle" fill="#8b949e" font-size="8">VT + Abuse + HA</text>
  <line x1="670" y1="91" x2="690" y2="91" stroke="#30363d" stroke-width="1.5"/>

  <rect x="690" y="70" width="90" height="42" rx="6" fill="#161b22" stroke="#e3b341" stroke-width="1.5"/>
  <text x="735" y="88" text-anchor="middle" fill="#e3b341" font-size="9" font-weight="600">Correlation</text>
  <text x="735" y="102" text-anchor="middle" fill="#8b949e" font-size="8">&amp; Aggregation</text>
  <line x1="780" y1="91" x2="810" y2="91" stroke="#30363d" stroke-width="1.5"/>

  <rect x="810" y="70" width="70" height="42" rx="6" fill="#161b22" stroke="#238636" stroke-width="1.5"/>
  <text x="845" y="88" text-anchor="middle" fill="#3fb950" font-size="9" font-weight="600">Report</text>
  <text x="845" y="102" text-anchor="middle" fill="#8b949e" font-size="8">+ Send</text>

  <!-- Nodes - Row 2 (bottom) - detail nodes -->
  <rect x="30" y="240" width="80" height="36" rx="6" fill="#161b22" stroke="#30363d" stroke-width="1"/>
  <text x="70" y="256" text-anchor="middle" fill="#8b949e" font-size="8">Split</text>
  <text x="70" y="268" text-anchor="middle" fill="#8b949e" font-size="8">Keywords</text>

  <rect x="125" y="240" width="80" height="36" rx="6" fill="#161b22" stroke="#30363d" stroke-width="1"/>
  <text x="165" y="256" text-anchor="middle" fill="#8b949e" font-size="8">Filter</text>
  <text x="165" y="268" text-anchor="middle" fill="#8b949e" font-size="8">CISA KEV</text>

  <rect x="220" y="240" width="80" height="36" rx="6" fill="#161b22" stroke="#30363d" stroke-width="1"/>
  <text x="260" y="256" text-anchor="middle" fill="#8b949e" font-size="8">Extract</text>
  <text x="260" y="268" text-anchor="middle" fill="#8b949e" font-size="8">Citations</text>

  <rect x="315" y="240" width="80" height="36" rx="6" fill="#161b22" stroke="#30363d" stroke-width="1"/>
  <text x="355" y="256" text-anchor="middle" fill="#8b949e" font-size="8">Web</text>
  <text x="355" y="268" text-anchor="middle" fill="#8b949e" font-size="8">Scraping</text>

  <rect x="410" y="240" width="80" height="36" rx="6" fill="#161b22" stroke="#30363d" stroke-width="1"/>
  <text x="450" y="256" text-anchor="middle" fill="#8b949e" font-size="8">Regex</text>
  <text x="450" y="268" text-anchor="middle" fill="#8b949e" font-size="8">IOC Parse</text>

  <rect x="505" y="240" width="80" height="36" rx="6" fill="#161b22" stroke="#30363d" stroke-width="1"/>
  <text x="545" y="256" text-anchor="middle" fill="#8b949e" font-size="8">Switch</text>
  <text x="545" y="268" text-anchor="middle" fill="#8b949e" font-size="8">by Type</text>

  <rect x="600" y="240" width="80" height="36" rx="6" fill="#161b22" stroke="#30363d" stroke-width="1"/>
  <text x="640" y="256" text-anchor="middle" fill="#8b949e" font-size="8">Merge</text>
  <text x="640" y="268" text-anchor="middle" fill="#8b949e" font-size="8">All IOCs</text>

  <rect x="695" y="240" width="80" height="36" rx="6" fill="#161b22" stroke="#30363d" stroke-width="1"/>
  <text x="735" y="256" text-anchor="middle" fill="#8b949e" font-size="8">Format</text>
  <text x="735" y="268" text-anchor="middle" fill="#8b949e" font-size="8">for LLM</text>

  <rect x="790" y="240" width="80" height="36" rx="6" fill="#161b22" stroke="#30363d" stroke-width="1"/>
  <text x="830" y="256" text-anchor="middle" fill="#8b949e" font-size="8">Clean</text>
  <text x="830" y="268" text-anchor="middle" fill="#8b949e" font-size="8">Format</text>

  <!-- Legend -->
  <rect x="30" y="300" width="12" height="12" rx="2" fill="#238636"/>
  <text x="48" y="310" fill="#8b949e" font-size="9">Input/Output</text>
  <rect x="140" y="300" width="12" height="12" rx="2" fill="#8957e5"/>
  <text x="158" y="310" fill="#8b949e" font-size="9">Research</text>
  <rect x="240" y="300" width="12" height="12" rx="2" fill="#39c5cf"/>
  <text x="258" y="310" fill="#8b949e" font-size="9">AI/LLM</text>
  <rect x="330" y="300" width="12" height="12" rx="2" fill="#d29922"/>
  <text x="348" y="310" fill="#8b949e" font-size="9">Extraction</text>
  <rect x="430" y="300" width="12" height="12" rx="2" fill="#da3633"/>
  <text x="448" y="310" fill="#8b949e" font-size="9">Enrichment</text>
  <rect x="530" y="300" width="12" height="12" rx="2" fill="#e3b341"/>
  <text x="548" y="310" fill="#8b949e" font-size="9">Correlation</text>
</svg>
